<svg xmlns="http://www.w3.org/2000/svg" width="58" height="58" viewBox="0 0 58 58">
  <g id="header_music" transform="translate(-221 -48)">
    <rect id="Rectangle_6" data-name="Rectangle 6" width="58" height="58" rx="10" transform="translate(221 48)" fill="#b8a5fa"/>
    <path id="Path_3" data-name="Path 3" d="M166.363,6.932a1.635,1.635,0,0,0-1.515-1.038,1.612,1.612,0,0,0-.586.11l-11.321,4.382A1.636,1.636,0,0,0,151.9,11.9V27.786c-.092-.077-.185-.153-.28-.226a8.967,8.967,0,0,0-5.532-1.89,9.06,9.06,0,1,0,9.061,9.061V13.014l10.283-3.982a1.624,1.624,0,0,0,.928-2.1Zm-14.631,29.2a5.807,5.807,0,1,1,.172-1.405,5.806,5.806,0,0,1-.172,1.405Z" transform="translate(98.18 51.58)" fill="#f6c3fc"/>
  </g>
</svg>
