<svg xmlns="http://www.w3.org/2000/svg" width="325.116" height="272.925" viewBox="0 0 325.116 272.925">
  <g id="the-band-speaker" transform="translate(-131 -497.116)">
    <path id="Path_5" data-name="Path 5" d="M1141,232.535s51.037-43.491,109.512,0" transform="translate(-908.908 285)" fill="none" stroke="#5b6199" stroke-linecap="round" stroke-width="2"/>
    <rect id="Rectangle_7" data-name="Rectangle 7" width="210.191" height="254.231" rx="6" transform="translate(131 515.81)" fill="#392f5f"/>
    <rect id="Rectangle_8" data-name="Rectangle 8" width="210.191" height="254.231" rx="6" transform="translate(181.045 515.81)" fill="#bd93f8"/>
    <rect id="Rectangle_9" data-name="Rectangle 9" width="182.165" height="164.149" rx="6" transform="translate(195.058 593.881)" fill="#3a2f5f"/>
    <rect id="Rectangle_10" data-name="Rectangle 10" width="122.111" height="20.018" rx="2" transform="translate(225.085 607.893)" fill="#5b6199"/>
    <circle id="Ellipse_1" data-name="Ellipse 1" cx="14.013" cy="14.013" r="14.013" transform="translate(195.058 535.828)" fill="#3a2f5f"/>
    <circle id="Ellipse_2" data-name="Ellipse 2" cx="14.013" cy="14.013" r="14.013" transform="translate(349.198 535.828)" fill="#3a2f5f"/>
    <circle id="Ellipse_3" data-name="Ellipse 3" cx="6.005" cy="6.005" r="6.005" transform="translate(235.094 543.835)" fill="#5e40d8"/>
    <circle id="Ellipse_4" data-name="Ellipse 4" cx="6.005" cy="6.005" r="6.005" transform="translate(279.134 543.835)" fill="#5e40d8"/>
    <circle id="Ellipse_6" data-name="Ellipse 6" cx="6.005" cy="6.005" r="6.005" transform="translate(327.178 543.835)" fill="#5e40d8"/>
    <circle id="Ellipse_5" data-name="Ellipse 5" cx="6.005" cy="6.005" r="6.005" transform="translate(257.114 543.835)" fill="#5e40d8"/>
    <g id="Group_12" data-name="Group 12" transform="translate(331.182 545.837)">
      <path id="Path_4" data-name="Path 4" d="M1214.365,246.1s6.627,1.358,8.075,10.527-12.813,157.242,8.464,166.934,3.671-66.366-23.251-16.3c-20,50.614,14.615,49.6,14.788,49.743,17.919.747,39.643-33.055,65.222-21.022,19.749,12.661,15.133,19.708,35.607,9.1" transform="translate(-1198.566 -241.897)" fill="none" stroke="#bbc7fa" stroke-width="1"/>
      <path id="Rectangle_11" data-name="Rectangle 11" d="M0,0H14.015a2,2,0,0,1,2,2V6.007a2,2,0,0,1-2,2H0a0,0,0,0,1,0,0V0A0,0,0,0,1,0,0Z" transform="translate(0 0)" fill="#bcc7fa"/>
    </g>
  </g>
</svg>
